<svg xmlns:xlink="http://www.w3.org/1999/xlink" xmlns="http://www.w3.org/2000/svg" viewBox="0 -0.013006643392145634 54.790000915527344 47.522735595703125" fill="#FFB22C" width="100"  height="100" ><defs><linearGradient id="0ddfb7b0-3b0c-481f-b418-a76a7754036d" y1="23.73" x2="54.79" y2="23.73" gradientUnits="userSpaceOnUse"><stop offset="0" stop-color="#FFB22C"></stop><stop offset=".49" stop-color="#F5C728"></stop><stop offset=".99" stop-color="#FFF500"></stop></linearGradient><pattern id="watermark" patternUnits="userSpaceOnUse" width="100%" height="100%">
<image xlink:href="https://www.logoai.com/img/watermark/LOGOAI-watermark.png" x="0" y="0" width="100%" height="100%">
</image>
</pattern><linearGradient id="0ddfb7b0-3b0c-481f-b418-a76a7754036d" y1="23.73" x2="54.79" y2="23.73" gradientUnits="userSpaceOnUse"><stop offset="0" stop-color="#FFB22C"></stop><stop offset=".49" stop-color="#F5C728"></stop><stop offset=".99" stop-color="#FFF500"></stop></linearGradient><linearGradient id="0ddfb7b0-3b0c-481f-b418-a76a7754036d" y1="23.73" x2="54.79" y2="23.73" gradientUnits="userSpaceOnUse"><stop offset="0" stop-color="#FFB22C"></stop><stop offset=".49" stop-color="#F5C728"></stop><stop offset=".99" stop-color="#FFF500"></stop></linearGradient><linearGradient id="0ddfb7b0-3b0c-481f-b418-a76a7754036d" y1="23.73" x2="54.79" y2="23.73" gradientUnits="userSpaceOnUse"><stop offset="0" stop-color="#FFB22C"></stop><stop offset=".49" stop-color="#F5C728"></stop><stop offset=".99" stop-color="#FFF500"></stop></linearGradient><pattern id="watermark" patternUnits="userSpaceOnUse" width="100%" height="100%">
<image xlink:href="https://www.logoai.com/img/watermark/LOGOAI-watermark.png" x="0" y="0" width="100%" height="100%">
</image>
</pattern><linearGradient id="0ddfb7b0-3b0c-481f-b418-a76a7754036d" y1="23.73" x2="54.79" y2="23.73" gradientUnits="userSpaceOnUse"><stop offset="0" stop-color="#FFB22C"></stop><stop offset=".49" stop-color="#F5C728"></stop><stop offset=".99" stop-color="#FFF500"></stop></linearGradient><linearGradient id="0ddfb7b0-3b0c-481f-b418-a76a7754036d" y1="23.73" x2="54.79" y2="23.73" gradientUnits="userSpaceOnUse"><stop offset="0" stop-color="#FFB22C"></stop><stop offset=".49" stop-color="#F5C728"></stop><stop offset=".99" stop-color="#FFF500"></stop></linearGradient><linearGradient id="0ddfb7b0-3b0c-481f-b418-a76a7754036d" y1="23.73" x2="54.79" y2="23.73" gradientUnits="userSpaceOnUse"><stop offset="0" stop-color="#FFB22C"></stop><stop offset=".49" stop-color="#F5C728"></stop><stop offset=".99" stop-color="#FFF500"></stop></linearGradient></defs><path d="M6.8 0h13.29c.59-.12.75.62 1.05 1 4.36 7.56 8.68 15.13 13.11 22.65 2.29-3.91 4.53-7.84 6.8-11.76H28.32l-.67-.21c0-.55.42-1 .65-1.42C30.21 7 32.06 3.71 34 .45c.26-.64 1-.38 1.58-.44C39.68 0 43.83 0 48 0c2.07 3.68 4.17 7.33 6.29 11 .21.4.6.86.25 1.32-2.17 3.83-4.41 7.62-6.6 11.45 2.31 3.93 4.56 7.89 6.85 11.84-2.07 3.62-4.18 7.21-6.23 10.83-.3.46-.55 1.2-1.24 1.05H34.25c-2.33-3.93-4.54-7.92-6.88-11.83-2.26 4-4.55 7.88-6.82 11.83H6.78c-2.2-4-4.56-7.88-6.78-11.86 2.27-3.94 4.53-7.89 6.83-11.82-2.07-3.73-4.2-7.37-6.31-11.01-.15-.4-.63-.87-.31-1.3C2.37 7.66 4.63 3.87 6.8 0zm6.94 35.6h13.61c-2.19-4-4.56-7.93-6.82-11.9-2.23 4-4.6 7.9-6.79 11.9z" fill="url(&quot;#0ddfb7b0-3b0c-481f-b418-a76a7754036d&quot;)"></path></svg>